<?xml version="1.0" standalone="no"?>
<!DOCTYPE svg PUBLIC "-//W3C//DTD SVG 20010904//EN"
 "http://www.w3.org/TR/2001/REC-SVG-20010904/DTD/svg10.dtd">
<svg version="1.0" xmlns="http://www.w3.org/2000/svg"
 width="740.000000pt" height="660.000000pt" viewBox="0 0 740.000000 660.000000"
 preserveAspectRatio="xMidYMid meet">

<g transform="translate(0.000000,660.000000) scale(0.100000,-0.100000)"
fill="#000000" stroke="none">
<path d="M5727 6184 c-142 -74 -226 -242 -244 -486 -3 -47 -9 -91 -12 -97 -5
-7 -27 -2 -66 14 -184 74 -398 51 -629 -68 -75 -39 -80 -40 -90 -22 -82 140
-178 251 -270 310 -64 41 -154 75 -198 75 -29 0 -29 -1 19 -36 68 -52 178
-160 225 -223 90 -120 131 -269 110 -397 -6 -37 -10 -69 -9 -70 1 -1 31 33 67
74 246 287 527 371 840 251 64 -24 146 -69 213 -116 26 -18 50 -33 54 -33 14
0 -110 119 -163 157 -62 44 -62 46 -39 190 15 93 56 236 82 286 21 41 82 106
116 124 46 23 103 19 143 -12 91 -69 82 -282 -26 -619 l-32 -98 40 -87 c46
-98 62 -166 62 -254 l0 -62 70 -38 c79 -42 78 -44 55 63 -30 142 -78 261 -128
317 -19 22 -19 22 13 100 53 126 71 206 77 345 15 344 -96 508 -280 412z"/>
<path d="M4056 5863 c-53 -54 -89 -121 -112 -213 -22 -88 -15 -319 14 -440 11
-47 22 -118 26 -157 3 -40 16 -98 27 -128 12 -31 19 -58 17 -59 -1 -2 -30 -11
-63 -21 -33 -9 -78 -26 -100 -37 l-40 -21 25 -10 c163 -66 274 -131 354 -206
33 -31 47 -40 43 -26 -4 11 -27 81 -53 155 -55 160 -70 276 -39 310 21 24 62
26 110 6 l34 -15 -46 72 c-59 92 -126 241 -155 348 -31 117 -32 322 -1 422 12
37 17 67 13 67 -4 0 -29 -21 -54 -47z"/>
<path d="M2421 5475 c-134 -42 -163 -194 -50 -262 19 -12 69 -31 113 -44 85
-24 140 -65 151 -111 9 -37 -18 -94 -57 -118 -45 -27 -94 -25 -157 6 -50 25
-70 27 -56 5 15 -25 86 -51 136 -51 124 0 212 103 180 211 -16 53 -59 82 -162
112 -132 38 -161 60 -161 122 0 93 108 151 181 97 20 -14 32 -18 37 -11 9 15
-13 34 -55 48 -41 13 -45 13 -100 -4z"/>
<path d="M1938 5335 c-3 -3 32 -107 78 -232 46 -124 82 -228 80 -230 -2 -2
-77 74 -166 169 -89 95 -168 174 -174 176 -7 2 -22 -5 -33 -15 -20 -18 -19
-19 58 -243 43 -124 77 -228 76 -233 -1 -4 -76 76 -166 178 -162 183 -163 184
-187 168 -13 -8 -21 -20 -17 -27 18 -29 375 -426 384 -426 5 0 18 5 28 12 18
11 15 24 -65 256 -47 135 -83 246 -81 248 2 2 73 -72 159 -164 214 -228 200
-217 227 -195 l22 18 -102 273 c-56 149 -105 272 -109 272 -3 0 -9 -2 -12 -5z"/>
<path d="M5901 4825 c-16 -14 -35 -42 -42 -63 -16 -52 -20 -54 -68 -37 -63 22
-82 19 -46 -8 100 -73 191 -184 245 -298 l30 -64 -6 45 c-3 25 -12 59 -19 75
-11 29 -10 33 21 69 64 74 65 200 2 272 -37 42 -74 45 -117 9z m46 -87 c-23
-24 -33 -29 -36 -18 -4 15 33 50 54 50 7 0 -1 -15 -18 -32z"/>
<path d="M4965 4773 c80 -17 114 -66 115 -160 0 -64 -9 -88 -55 -149 -43 -56
-85 -138 -109 -212 -18 -52 -47 -204 -42 -210 2 -1 18 35 36 80 77 193 178
346 334 507 79 81 86 91 51 72 -22 -12 -62 -39 -89 -59 -96 -72 -86 -71 -86
-16 0 93 -57 156 -140 153 -20 -1 -26 -3 -15 -6z"/>
<path d="M3575 4753 c-44 -23 -74 -53 -103 -103 -14 -25 -27 -46 -28 -48 -1
-2 -26 4 -55 12 -65 20 -159 21 -203 2 -18 -8 -46 -30 -61 -49 l-28 -35 -40
29 c-93 67 -234 88 -348 52 -75 -24 -167 -90 -203 -145 -24 -37 -39 -48 -66
-53 -204 -39 -349 -103 -446 -200 -34 -35 -72 -82 -84 -105 l-21 -42 63 43
c74 50 191 102 274 120 73 16 278 16 362 0 154 -30 378 -124 557 -234 50 -30
92 -54 94 -52 6 7 -94 118 -166 185 -91 86 -203 167 -293 214 -41 21 -77 40
-79 42 -9 8 27 38 64 55 135 62 370 -44 662 -296 171 -147 308 -284 447 -445
l39 -45 -41 78 c-130 244 -372 537 -553 669 -33 23 -59 46 -59 50 0 4 13 14
30 23 68 35 194 6 338 -79 235 -137 460 -423 710 -901 82 -157 88 -140 15 45
-71 180 -150 326 -272 500 -64 92 -215 281 -303 378 -80 88 -113 160 -106 232
3 32 6 35 38 38 29 2 51 -7 110 -46 160 -105 432 -376 588 -586 52 -70 48 -47
-9 64 -112 218 -397 511 -593 610 -67 34 -87 40 -140 40 -36 -1 -73 -7 -91
-17z"/>
<path d="M4855 4703 c-78 -41 -125 -113 -125 -194 0 -45 4 -55 34 -85 24 -24
43 -34 65 -34 65 0 142 50 176 114 l19 35 -23 25 c-13 14 -42 29 -65 34 l-41
9 28 12 c38 15 62 14 97 -4 17 -9 30 -13 30 -10 0 18 -31 75 -51 94 -28 26
-99 28 -144 4z"/>
<path d="M1096 4651 c-16 -18 -9 -29 154 -262 94 -134 175 -245 180 -247 20
-7 9 20 -31 79 l-41 60 72 94 72 94 73 -27 c74 -26 75 -26 89 -7 9 11 15 22
15 25 1 6 -539 210 -555 210 -6 0 -19 -8 -28 -19z m274 -131 c47 -18 89 -36
94 -41 8 -7 -110 -169 -123 -169 -5 1 -176 241 -204 287 -8 12 22 2 233 -77z"/>
<path d="M5294 4549 c-10 -12 -41 -36 -67 -54 -39 -27 -46 -35 -33 -42 14 -8
14 -14 1 -63 -8 -30 -15 -57 -15 -60 0 -3 23 38 51 90 28 52 57 102 64 110 31
38 31 54 -1 19z"/>
<path d="M5444 4541 c-59 -34 -96 -86 -120 -166 l-16 -58 23 -18 c13 -10 35
-21 49 -24 13 -4 40 -24 60 -45 38 -41 75 -56 115 -46 28 7 29 15 15 68 -12
40 -54 98 -73 98 -7 0 -19 4 -27 10 -12 7 -12 12 4 29 23 26 68 27 107 4 21
-12 32 -14 37 -7 20 30 92 46 92 20 0 -8 -14 -49 -31 -91 -16 -42 -29 -86 -27
-98 3 -19 9 -22 47 -21 58 1 96 41 107 109 27 183 -198 330 -362 236z"/>
<path d="M5950 4272 c101 -165 140 -332 98 -417 -21 -41 -62 -75 -90 -75 -74
0 -272 135 -298 204 -16 44 -12 66 20 97 23 24 26 31 14 36 -8 3 -25 20 -37
38 l-23 33 -46 -44 c-26 -24 -41 -44 -34 -44 7 0 26 -10 41 -22 25 -20 27 -25
22 -71 -8 -65 -20 -81 -115 -156 -200 -158 -406 -241 -502 -201 -36 15 -70 80
-70 136 0 36 -3 41 -44 63 -52 27 -124 96 -167 158 -17 23 -32 43 -34 43 -2 0
1 -17 7 -37 17 -63 58 -141 84 -162 20 -16 24 -27 24 -77 0 -123 69 -192 201
-202 64 -4 71 -7 84 -33 10 -18 15 -58 15 -109 0 -61 5 -90 20 -120 37 -73 23
-145 -39 -204 l-31 -30 0 25 c0 56 -50 130 -169 254 -65 68 -131 143 -144 167
-25 41 -44 98 -34 98 4 0 45 -22 202 -110 77 -43 66 -33 -85 80 -69 52 -170
130 -225 175 -55 45 -106 85 -112 89 -7 4 7 -26 31 -66 94 -159 155 -331 177
-495 13 -103 7 -205 -21 -322 -11 -46 -19 -85 -17 -87 8 -8 59 86 75 136 20
64 23 305 5 378 -10 38 -9 41 4 30 21 -17 96 -116 165 -216 43 -63 58 -95 58
-120 0 -51 -28 -101 -67 -120 -31 -15 -33 -19 -33 -66 0 -196 -75 -422 -176
-535 l-42 -47 21 -59 c16 -46 21 -84 21 -162 0 -101 0 -102 18 -75 25 39 39
118 32 182 l-6 57 52 64 c103 126 167 300 177 484 l6 100 50 30 c182 108 258
234 201 333 -49 87 -54 99 -54 150 0 131 74 189 190 150 102 -34 177 -41 266
-23 93 19 150 49 237 121 46 37 68 49 78 43 31 -20 87 -10 123 22 37 32 76
119 76 167 -1 133 -108 358 -191 403 -16 8 -14 1 11 -39z m-229 -427 c31 -23
71 -47 88 -55 18 -7 30 -18 28 -24 -6 -19 -120 -95 -177 -117 -77 -31 -196
-32 -264 -1 l-48 22 148 113 c82 63 154 112 159 109 6 -4 35 -25 66 -47z"/>
<path d="M853 4171 c-30 -14 -48 -31 -63 -60 -29 -58 -83 -211 -77 -218 9 -8
516 -193 531 -193 18 0 29 42 13 52 -6 4 -63 26 -127 49 -63 23 -116 42 -117
43 -2 2 11 42 28 90 23 68 29 97 24 127 -8 48 -47 97 -92 115 -43 19 -70 17
-120 -5z m138 -77 c45 -43 50 -77 21 -161 -13 -40 -29 -73 -35 -73 -7 0 -55
16 -107 35 -52 20 -101 38 -108 40 -15 5 28 128 56 158 41 47 125 47 173 1z"/>
<path d="M2336 3669 c-82 -169 -107 -265 -113 -432 -4 -87 -1 -166 7 -214 21
-132 82 -291 164 -425 l35 -58 -52 0 c-29 0 -100 11 -159 25 -417 94 -620 378
-622 867 -1 86 -4 154 -8 150 -11 -12 -56 -164 -68 -232 -20 -109 -16 -282 10
-385 25 -103 82 -231 139 -315 34 -49 41 -69 49 -141 18 -142 69 -282 149
-408 33 -52 34 -55 22 -100 -16 -62 3 -101 63 -130 48 -23 154 -41 238 -40
l55 0 -93 24 c-123 32 -182 69 -182 116 0 6 16 27 36 45 l36 34 -51 57 c-64
72 -123 185 -150 287 -12 44 -19 82 -16 84 2 3 20 -9 40 -27 113 -99 332 -149
590 -135 l120 7 117 -122 c96 -99 118 -128 123 -159 26 -162 105 -284 231
-358 44 -26 174 -78 174 -70 0 2 -19 15 -42 29 -90 53 -151 142 -164 239 -7
48 16 149 47 210 10 20 19 39 19 41 0 2 -20 12 -45 22 -108 41 -189 140 -202
245 -5 42 -9 49 -32 55 -44 11 -142 64 -189 103 -103 84 -185 244 -225 437
-26 130 -29 465 -4 654 9 69 15 127 12 129 -2 2 -29 -47 -59 -109z"/>
<path d="M3486 3678 c108 -115 222 -283 294 -433 130 -270 188 -591 162 -893
-7 -82 -20 -162 -32 -198 -29 -84 -92 -154 -182 -198 -83 -42 -56 -51 31 -11
30 14 56 24 58 22 7 -8 -28 -92 -52 -123 -32 -42 -102 -93 -200 -143 l-80 -42
55 6 c84 9 173 57 252 137 l67 68 50 -50 c60 -60 154 -122 230 -151 87 -34
262 -38 384 -10 119 28 143 42 56 34 -65 -6 -194 11 -204 27 -2 4 16 10 41 14
63 8 147 51 184 92 17 20 29 38 27 41 -3 2 -26 -10 -52 -26 -78 -49 -135 -64
-234 -59 -99 5 -181 38 -271 109 -65 51 -80 81 -55 109 10 11 21 20 26 20 4 0
36 -18 71 -39 110 -67 232 -88 333 -59 l40 11 -65 13 c-149 28 -248 86 -289
167 -13 26 -21 50 -18 53 2 3 26 -9 52 -27 63 -43 169 -79 232 -79 80 0 91 9
41 35 -65 34 -114 115 -70 115 10 0 27 6 37 14 18 13 17 14 -13 20 -37 9 -82
42 -82 61 0 10 10 12 38 9 l37 -5 -27 16 c-15 8 -35 29 -43 45 -15 28 -13 34
24 122 50 116 86 240 102 348 13 91 7 240 -13 305 -11 38 -12 34 -24 -95 -15
-162 -35 -263 -76 -378 -27 -78 -86 -198 -93 -190 -1 2 2 55 7 118 13 149 4
412 -17 519 -18 92 -64 246 -71 238 -2 -2 3 -46 12 -98 19 -111 14 -263 -12
-349 -22 -73 -54 -135 -64 -124 -4 5 -25 50 -45 99 -116 283 -280 556 -423
703 -116 120 -241 202 -136 90z"/>
<path d="M5803 3048 c-33 -37 -43 -64 -43 -120 0 -98 55 -164 135 -162 57 1
93 25 156 104 91 114 160 143 219 94 64 -54 57 -141 -16 -211 -24 -24 -44 -47
-44 -53 0 -37 94 48 115 105 46 119 -44 257 -157 242 -55 -7 -79 -26 -148
-117 -37 -49 -75 -88 -96 -97 -31 -16 -37 -15 -69 0 -73 35 -98 129 -49 186
14 17 32 31 40 31 8 0 14 5 14 10 0 18 -36 10 -57 -12z"/>
<path d="M5705 2566 c-48 -21 -73 -56 -119 -167 -31 -73 -41 -106 -33 -110 25
-14 520 -219 522 -217 1 2 8 13 14 26 13 25 8 28 -166 98 -40 16 -73 35 -73
42 0 7 7 26 15 41 15 30 12 29 271 87 59 13 74 20 83 41 7 14 10 27 8 29 -2 2
-74 -12 -160 -31 -86 -19 -158 -35 -161 -35 -2 0 -2 18 1 39 15 111 -101 202
-202 157z m119 -76 c19 -17 40 -46 46 -65 10 -29 7 -42 -21 -109 l-31 -75 -37
15 c-20 8 -70 29 -111 46 -41 17 -76 32 -78 33 -6 5 50 130 66 149 42 46 117
49 166 6z"/>
<path d="M5448 2143 c-23 -27 -179 -246 -176 -248 2 -1 108 -77 236 -169 128
-93 235 -167 236 -165 19 22 189 265 193 275 3 8 -1 14 -8 14 -8 -1 -48 -49
-90 -108 -45 -64 -82 -107 -91 -106 -15 1 -183 118 -192 133 -3 4 23 44 56 90
40 55 57 86 50 93 -6 6 -30 -19 -72 -77 -34 -47 -65 -85 -69 -83 -16 6 -190
133 -191 138 0 3 34 52 75 109 41 57 75 108 75 112 0 15 -16 10 -32 -8z"/>
<path d="M5102 1721 c-22 -17 -68 -56 -102 -88 l-61 -58 192 -213 c192 -213
192 -213 212 -193 20 20 20 20 -72 122 l-92 102 70 64 c53 48 73 74 81 104 16
59 3 108 -40 152 -34 34 -42 37 -92 37 -45 0 -62 -5 -96 -29z m118 -26 c44
-23 70 -66 70 -118 0 -49 -7 -59 -81 -126 l-46 -41 -82 91 c-45 50 -81 94 -79
99 2 4 30 30 62 59 65 56 101 64 156 36z"/>
<path d="M4806 1477 c-18 -13 -17 -23 19 -286 20 -150 34 -275 32 -278 -3 -3
-93 73 -199 168 -242 218 -222 203 -247 189 -12 -6 -21 -15 -21 -21 0 -6 59
-122 132 -258 89 -168 137 -247 145 -244 10 4 2 27 -30 87 -128 237 -179 338
-166 331 8 -5 94 -80 191 -167 169 -151 177 -158 202 -147 17 8 26 20 26 34 0
12 -14 120 -30 240 -17 120 -30 225 -28 234 2 9 53 -77 113 -192 60 -114 115
-207 120 -207 6 0 19 6 28 13 15 11 3 37 -116 261 -73 137 -137 251 -143 253
-5 2 -18 -3 -28 -10z"/>
<path d="M2602 1284 c-37 -25 -52 -67 -52 -143 l0 -69 -32 -7 c-94 -20 -162
-93 -162 -174 0 -91 54 -134 162 -130 66 3 67 2 70 -24 2 -18 13 -32 33 -42
l29 -16 0 55 c0 50 2 54 30 66 30 12 37 39 9 31 -8 -2 -21 -6 -30 -8 -19 -6
-25 13 -34 112 -3 39 -8 80 -11 92 -3 19 4 26 46 44 107 46 144 139 79 200
-36 34 -99 40 -137 13z m112 -30 c22 -21 20 -42 -6 -94 -14 -27 -36 -50 -58
-62 l-35 -18 -3 65 c-4 83 16 125 58 125 16 0 36 -7 44 -16z m-147 -309 c6
-49 12 -105 12 -122 1 -33 1 -33 -49 -33 -41 0 -55 5 -85 31 -31 27 -35 37
-35 79 0 53 22 89 74 121 58 36 70 25 83 -76z"/>
<path d="M4062 1172 c-13 -2 -25 -9 -27 -15 -8 -22 -47 -589 -41 -595 13 -12
21 13 26 81 l5 72 105 27 c58 14 110 27 117 27 6 1 28 -28 48 -64 35 -64 53
-76 83 -56 10 6 -21 69 -133 262 -81 140 -150 256 -153 260 -4 3 -17 3 -30 1z
m93 -226 c47 -82 84 -150 83 -151 -8 -7 -200 -46 -204 -42 -3 3 0 84 7 181 7
97 16 173 20 169 5 -5 47 -75 94 -157z"/>
<path d="M3400 819 l0 -290 28 3 27 3 3 136 3 137 98 4 c88 3 102 6 133 30 92
70 85 203 -12 253 -21 11 -63 15 -155 15 l-125 0 0 -291z m230 258 c33 -17 70
-74 70 -109 0 -37 -23 -81 -56 -107 -22 -17 -41 -21 -105 -21 l-79 0 0 125 0
125 73 0 c39 0 83 -6 97 -13z"/>
</g>
</svg>
